# xmcd
#
# Track frame offsets:
# 150
# 15986
# 29607
# 46279
# 60886
# 83845
# 97241
# 122211
# 134672
# 160720
# 171186
# 180154
# 190706
# 207484
# 219113
# 230476
# 242317
# 262781
#
# Disc length: 3698 seconds
#
#
# Revision: 0
# Processed by: cddbd v1.5.2PL0 Copyright (c) Steve Scherf et al.
# Submitted via: FreeRIP 2.951 
#
DISCID=e30e7012
DTITLE=The Voices of Bulgaria
DYEAR=2006
DGENRE=Folk
TTITLE0=A Moon Has Risen
TTITLE1=A Star Has Flied Over
TTITLE2=Rufinka Has Been Taken Down With An Illness
TTITLE3=Young Married Woman, Todorka, I Say
TTITLE4=The Village Crier is Crying All Over The Village
TTITLE5=Dimitar, My Son, Dimitar
TTITLE6=Manda, Manda, Golden Manda
TTITLE7=Gena, I say, Town-hall Woman
TTITLE8=It Dawns, Aunt
TTITLE9=Last Night A Working-bee Was Called
TTITLE10=Chubrichanche, I Say, Little Girl
TTITLE11=Bilders Have Come In The Village
TTITLE12=I Am Caressing, I Am Caressing
TTITLE13=It Lies Heavy On My Heart, My Dear Mother
TTITLE14=My Mother Has Seen Me Off
TTITLE15=A Little Lass Has Picked A Flower
TTITLE16=You, Mad Young Ages
TTITLE17=Radka Was Standing At the Gate
EXTD=
EXTT0=
EXTT1=
EXTT2=
EXTT3=
EXTT4=
EXTT5=
EXTT6=
EXTT7=
EXTT8=
EXTT9=
EXTT10=
EXTT11=
EXTT12=
EXTT13=
EXTT14=
EXTT15=
EXTT16=
EXTT17=
PLAYORDER=
